<?xml version="1.0" encoding="UTF-8"?>
<svg version="1.1" viewBox="0 0 2048 1153" width="100%" height="500" xmlns="http://www.w3.org/2000/svg">
<path transform="translate(1645,1074)" d="m0 0 6 1 82 34 31 13 16 7 2 9 1 15h-239l4-5 20-15 14-11 17-13 38-29z" fill="#FEFEFE"/>
<path transform="translate(659,1058)" d="m0 0 5 3 9 10 24 26 9 10 6 7-2 9-9 29-1 1h-130l-5-6 1-7 20-64 4-3z" fill="#FEFEFE"/>
<path transform="translate(1279,253)" d="m0 0h49l30 75 6 16 3-4 12-30 17-43 5-13 1-1h47v5l-12 4-3 6-1 17v64l1 11 3 6 5 2 9 2v5l-21 1-40-1 1-5 1-1 10-2 5-5 1-7 1-82h-2l-3 9-28 70-10 24-3 2-10-1-12-27-12-29-18-43-2-4v80l2 10 6 4 8 1 2 2-1 4h-49v-5l1-1 9-1 5-3 2-4 1-9v-76l-1-9-3-5-11-3-2-2z" fill="#FEFEFE"/>
<path transform="translate(921,253)" d="m0 0h60v5l-10 3h-3v9l15 44 9 26 1 2 4-9 19-52 2-5-1-6-4-6-5-3-7-2-1-5 1-1h56l1 3-2 3-10 3-1 2 1 11 20 65v2l2-1 15-44 8-24v-12l-13-3v-5h46l1 3-2 3-10 3-5 6-8 20-22 61-10 26-1 2h-14l-4-9-16-48-7-22v-3l-2 1-26 70-5 11h-13l-4-9-19-52-14-38-6-12-6-5-10-2-1-5z" fill="#FEFEFE"/>
<path transform="translate(1584,253)" d="m0 0h46l11 16 28 40 11 16 12 17 1 1v-72l-2-7-3-3-10-2-1-1v-5h48v5l-7 2-7 3-3 5-1 75v33l-1 1h-21l-8-10-13-19-14-20-12-17-14-20-9-13-2-1 1 4v62l1 18 3 5 4 2 7 1 1 1v5h-48l1-6 9-1 6-4 2-6v-87l-3-8-8-3-5-2z" fill="#FEFEFE"/>
<path transform="translate(1034,1083)" d="m0 0 4 1 12 8 40 28 11 8 2 4-2 21h-141l2-29 1-7 16-8 31-15z" fill="#FEFEFE"/>
<path transform="translate(1187,251)" d="m0 0h20l16 4 15 8 10 8 9 12 6 13 2 8v21l-4 13-6 11-11 12-14 9-13 5-9 2h-23l-15-4-12-6-10-8-9-10-8-16-2-8v-21l4-13 6-11 8-10 12-9 12-6zm8 10-11 2-8 4-7 6-6 10-4 10-3 19 1 16 4 15 6 10 8 8 11 5 7 1h9l11-3 9-6 5-5 5-8 4-12 1-6v-25l-4-15-5-10-6-7-9-6-7-2z" fill="#FEFEFE"/>
<path transform="translate(1796,886)" d="m0 0 41 1 8 1 13 23 9 17-1 5-14 23-9 14-2 1-31-1-17-1-10-18-12-22 1-5 12-20 11-17z" fill="#FEFEFE"/>
<path transform="translate(1463,253)" d="m0 0h101l1 18v13h-6l-6-14-7-6-13-2-31-1v47l23-3 5-3 3-7 2-7h5l1 1v39l-1 7-5-1-5-12-6-4-5-1-18-1 1 12 1 29 2 4 8 4 8 1h16l14-3 6-4 6-12 3-8h6l-1 25-1 11-7 1h-29l-73-1v-5l1-1 10-2 4-4 1-6v-88l-3-7-10-3-2-2z" fill="#FEFEFE"/>
<path transform="translate(729,232)" d="m0 0h37v53l13-1h21l1-51 1-1h36l1 1v137l-5 2h-26l-7-1v-52h-35v52h-37l-1-3v-135zm7 8v124h22l1-53 49 1 1 52h22v-124h-22l-1 51-49 1v-52z" fill="#FEFEFE"/>
<path transform="translate(1427,955)" d="m0 0 6 2 17 12 14 10 2 2-2 29-1 13-2 3-33 15-4 2-5-1-16-11-14-10-4-3v-10l3-33 4-4 33-15z" fill="#FEFEFE"/>
<path transform="translate(80,944)" d="m0 0 5 1 11 8 20 14 3 3v10l-3 33-19 10-19 9-6-1-14-10-16-11-4-4 3-42 3-3z" fill="#FEFEFE"/>
<path transform="translate(37,664)" d="m0 0 6 1 17 12 16 11 1 7-3 37-3 3-28 13-8 4-5-1-11-8-19-13v-48l16-8z" fill="#FEFEFE"/>
<path transform="translate(491,232)" d="m0 0h82l1 2v31l-2 1h-44l1 18h39l4 2v31l-4 2h-40v19l9-1h34l3 3v29l-1 2-39 1h-31l-12-1-1-1v-137zm8 7-1 1v124h67l1-1v-18h-45v-34h42l1-4v-14l-1-1h-42v-32l1-1 44-1v-18z" fill="#FEFEFE"/>
<path transform="translate(663,229)" d="m0 0h12l17 2 13 4 4 3-1 10-6 25h-6l-13-4-7-1h-12l-13 4-8 6-6 8-3 7-1 10 2 11 6 10 8 6 9 4 4 1h19l12-3 4-2h5l6 26 1 10-5 3-11 3-14 2h-21l-17-4-16-8-11-9-7-7-9-14-6-18-1-15 3-17 5-12 9-13 11-11 14-9 16-6zm-8 9-16 5-12 7-12 11-7 10-6 13-2 8v20l5 16 7 11 7 8 12 9 12 6 16 4h21l19-3 1-1-1-10-2-11-2-1-13 3-13 1-13-2-12-5-10-9-6-10-3-13 1-13 5-12 5-7 11-8 11-4 6-1h15l14 3h3l4-16v-5l-9-3-7-1z" fill="#FEFEFE"/>
<path transform="translate(456,817)" d="m0 0 5 3 15 15 7 8 1 5-10 33-8 3-28 7-4-1-20-20-5-6 1-8 9-29 16-5z" fill="#FEFEFE"/>
<path transform="translate(372,232)" d="m0 0h98l1 1v32l-2 1h-29v104l-1 1h-36l-1-1v-104h-30l-1-1v-32zm7 7-1 1v18l3 1h29v105h22v-105l31-1 1-18-13-1z" fill="#FEFEFE"/>
<path transform="translate(416,936)" d="m0 0 16 8 26 14 23 13 19 10 1 2 1 16 1 60v19l-24 15-25 15-21 13-10 6h-5l-22-12-21-12-11-6-26-14-1-2-1-17-1-45v-33l16-10 23-14 21-13zm0 7-27 16-18 11-28 17-2 2v28l1 60 4 4 23 12 22 12 12 7 11 6 6 3 6-2 21-13 45-27 5-4v-32l-1-43-1-15-32-17-23-13-19-10z" fill="#FEFEFE"/>
<path transform="translate(1658,848)" d="m0 0h8l11 13 11 14 12 15 22 28 3 4-1 6-28 70-5 12-2 2-80 12-14 1-8-9-10-13-13-16-11-14-13-16-4-5 1-6 15-38 17-43 3-4 72-11zm-2 6-76 11-6 2-13 34-16 40-3 9 8 10 11 14 12 15 11 14 10 13 4 4 41-6 46-7 4-6 15-39 14-35 1-4-11-14-12-15-11-14-20-25-1-1z" fill="#FEFEFE"/>
<path transform="translate(1273,1009)" d="m0 0 5 1 18 14 14 11 18 14 14 11 10 8-7 50-5 35h-6l1-12 10-72-4-2-54-42-12-9-26 10-55 22-2 6-11 77v7l13 10 4 3v2h-8l-8-7-8-6 1-14 11-78 2-4 31-13 52-21z" fill="#FEFEFE"/>
<path transform="translate(2026,995)" d="m0 0h22v6l-3 1-103 5-10 19-21 41-12 22-9 17 1 6 15 23 10 16v2h-8l-24-38-3-5 1-6 10-19 28-54 10-19 6-11 3-2 64-3z" fill="#FEFEFE"/>
<path transform="translate(167,760)" d="m0 0 5 1 26 14 23 13 12 7 1 23v51l-11 7-51 31-7-2-46-25-12-7-1-1-1-12-1-60 4-4 17-10 21-13 19-12zm0 5-14 8-26 16-16 10-2 2v17l1 50 4 4 21 11 22 12 12 7 6-1 19-12 26-16 9-6 1-1-1-58-1-11-46-25-13-7z" fill="#FEFEFE"/>
<path transform="translate(815,787)" d="m0 0h26l13 20v6l-11 20-2 1-24 1-4-4-10-16-1-1v-6l11-20z" fill="#FEFEFE"/>
<path transform="translate(1415,759)" d="m0 0 5 1 28 15 23 13 5 5 1 43v22l-10 7-17 10-23 14-6 4-5-1-24-13-18-10-13-8-1-3-1-38v-26l19-12 23-14zm0 5-12 7-28 17-11 7-1 2 1 51 1 11 46 25 7 4 5-1 14-8 23-14 11-7 2-2-1-55-1-7-9-6-26-14-18-10z" fill="#FEFEFE"/>
<path transform="translate(1054,865)" d="m0 0 7 3 19 10 23 13 9 5 1 3 1 62-3 3-30 18-19 12-3 2-5-1-23-13-26-14-5-4-2-55v-9l9-6 20-12 22-14zm0 5-14 8-26 16-11 7v33l1 27 4 4 25 13 16 9 7 4 6-1 24-15 20-12 4-4-1-40-1-20-14-8-22-12-16-9z" fill="#FEFEFE"/>
<path transform="translate(823,986)" d="m0 0h9l6 7 9 13 12 17 11 15-1 5-17 37-8 18-2 2-39 4-26 2-5-5-13-19-13-18-7-10-1-3 18-39 5-11 4-8 3-2zm4 3-49 5-9 1-4 6-15 33-7 15 1 5 24 34 9 13 6 1 54-5 3-1 8-16 9-21 7-15 1-5-7-11-9-12-14-20-4-6z" fill="#FEFEFE"/>
<path transform="translate(889,446)" d="m0 0h9l5 4 14 22 4 6 1-31h17l1 1v62l-2 2-10 1-6-2-4-5-12-19-4-6-1 30-1 1h-16l-1-1v-63zm1 4-3 1v56l1 1h9v-38l3 1 8 12 11 17 5 7 2 1h9l1-29v-27l-5-2-5 1-1 36h-3l-16-25-7-10-3-2z" fill="#FEFEFE"/>
<path transform="translate(2037,465)" d="m0 0 5 1 6 4v40l-10 5-5-1-17-12-2-2 2-23 4-4z" fill="#FEFEFE"/>
<path transform="translate(1976,776)" d="m0 0 7 1 26 14 21 12 1 1 1 19v41l-16 10-28 17-5 3-7-1-24-13-23-13-1-2-1-27v-31l9-6 23-14zm0 4-44 27-2 3 1 39 1 15 8 5 28 15 14 7 28-17 16-10 2-2v-29l-1-26-9-6-29-16-9-5z" fill="#FEFEFE"/>
<path transform="translate(647,796)" d="m0 0 7 1 28 15 19 11 1 17 1 39-3 5-16 10-25 15-6 4-5-1-24-13-23-13-1-1-1-14-1-44 9-6 21-13 16-10zm2 3-12 7-23 14-11 7-1 1 1 53 4 4 32 17 12 7 5-2 32-19 10-7 1-3-1-41-1-12-24-13-23-13z" fill="#FEFEFE"/>
<path transform="translate(1156,446)" d="m0 0h34l2 2v14l-1 1h-20v7l19 1 1 1v15l-19 1-2 7h18l4 2v14l-1 1h-38l-1-3v-61zm24 4-23 1-1 2v34l1 21h30l1-1-1-7-19-1-1-1v-14l20-1v-7l-1-1h-19v-16h20l1-1v-6l-5-2z" fill="#FEFEFE"/>
<path transform="translate(1839,646)" d="m0 0 7 1 12 9 2 2-1 19-8 5-12 5-9-6-8-6 1-19 4-4z" fill="#FEFEFE"/>
<path transform="translate(210,672)" d="m0 0 5 1 14 10 1 2-1 17-5 5-12 6-5-1-12-8-3-3v-9l1-10 5-4z" fill="#FEFEFE"/>
<path transform="translate(1191,772)" d="m0 0 6 2 12 9 2 4-2 17-8 5-9 4-5-1-14-10-1-5 1-13 2-4z" fill="#FEFEFE"/>
<path transform="translate(128,1063)" d="m0 0 5 1 13 12 11 11 8 7 11 11 8 7-1 9-8 32h-5l5-23 3-12-1-5-15-15-8-7-17-17-6-5-8 1-56 16-4 14-12 52-5 1 1-9 13-55 2-6 11-4z" fill="#FEFEFE"/>
<path transform="translate(1937,561)" d="m0 0 55 4 4 5 15 31 6 13v5l-16 23-12 18-4 4-49-3-7-2-10-19-11-23-3-7 1-4 22-33 8-11zm1 4-4 5-18 27-7 10 1 6 16 33 5 10 1 1 43 3h9l4-4 20-30 5-8-1-7-11-22-9-19-4-2-41-3z" fill="#FEFEFE"/>
<path transform="translate(968,446)" d="m0 0h16l10 4 3 3-2 5-4 7-4 1-8-3h-6l-1 5 6 2 13 7 6 7 2 4-1 10-3 6-8 7-7 2h-13l-11-3-8-6 2-6 5-8 6 1 5 3 4 1h7l1-4-16-9-7-8-2-10 4-10 8-7zm5 3-8 3-6 7-1 3v9l7 8 15 8 2 2v6l-3 4h-12l-7-4-4 1-3 4 1 4 9 4 5 1h12l7-3 5-5 2-4v-10l-6-7-17-9-3-3v-5l3-3 8-1 9 2 2-1 1-6-4-3-11-2z" fill="#FEFEFE"/>
<path transform="translate(1095,446)" d="m0 0h22l10 2 8 6 4 9v9l-3 7-5 6 1 5 8 11 5 8v3h-18l-6-7-8-12-3-3v17l-2 5h-16l-1-2v-61l1-2zm1 5-1 1v54l1 2h9l1-21 1-1 7 1 10 15 5 6h9l-1-4-10-15-2-4v-2l5-2 4-6 1-3v-9l-4-7-5-4-3-1z" fill="#FEFEFE"/>
<path transform="translate(1012,446)" d="m0 0h21l10 2 8 6 3 5 1 4v8l-2 7-7 8-8 3-12 1v17l-2 5h-16l-1-2v-62zm16 4-16 1-1 1v55l1 1h9l1-21 2-1 14-1 6-3 5-5 2-6v-7l-4-8-5-4-12-2z" fill="#FEFEFE"/>
<path transform="translate(1574,680)" d="m0 0 4 1 11 8 1 1v11l-2 6-3 3-10 4-5-1-9-7-2-2 1-16 3-3z" fill="#FEFEFE"/>
<path transform="translate(354,670)" d="m0 0h10l32 4 4 4 11 27 3 7-1 6-14 18-9 12-7 1-33-4-5-2-5-10-10-25v-6l8-11 12-16zm1 3-16 21-6 8 1 8 12 29 2 3 32 4h8l16-21 6-8v-7l-13-31-2-2-13-2-16-2z" fill="#FEFEFE"/>
<path transform="translate(856,447)" d="m0 0h17l1 5v52l-1 7-2 1h-15l-1-2v-62zm3 4v56l1 1h9v-57z" fill="#FEFEFE"/>
<path transform="translate(141,523)" d="m0 0h40l13 22 7 12-2 6-13 23-5 7-2 1h-38l-6-8-13-22-1-2v-6l16-29zm22 2-21 1-4 5-10 18-4 7v6l14 24 3 5h38l6-9 12-21-1-7-13-23-4-5z" fill="#FEFEFE"/>
<path transform="translate(1071,446)" d="m0 0 10 1 1 4v55l-2 6h-16l-1-1v-63l1-1zm-2 4-2 1v56l1 1h9v-57z" fill="#FEFEFE"/>
<path transform="translate(1744,743)" d="m0 0 6 1 10 9 11 9 5 5-2 13-3 11-2-4 3-15-1-5-15-13-8-7-7 1-24 8-3 2-5 25v10l4 2 11 10 9 7 6-1 24-8 3-3 3-5h1l-1 8-6 4-30 10-13-11-14-12-1-1v-9l6-28 6-4z" fill="#FEFEFE"/>
<path transform="translate(0,560)" d="m0 0 11 1 6 9 4 8-2 5-9 13-4 1-6-1z" fill="#FEFEFE"/>
<path transform="translate(31,467)" d="m0 0h7l8 6 9 9v9l-4 13-5 5-18 6-4-2-8-7-8-8 1-12 3-10 6-5zm2 2-14 4-4 4-3 9-1 11 7 8 8 7 8-1 10-3 5-5 4-15-1-5-7-8-6-5z" fill="#FEFEFE"/>
<path transform="translate(1107,458)" d="m0 0h10l5 3 2 3v8l-5 5-2 1h-10l-2-3v-15zm3 4-1 1v9l1 2h6l4-3-1-7-3-2z" fill="#FEFEFE"/>
<path transform="translate(1023,458)" d="m0 0h9l6 3 2 3v8l-5 5-3 1h-9l-2-2v-16zm3 4-1 1v9l1 2h6l4-3-1-7-3-2z" fill="#FEFEFE"/>
</svg>
